<?xml version="1.0" encoding="utf-8"?>
<!-- Generator: Adobe Illustrator 27.3.1, SVG Export Plug-In . SVG Version: 6.00 Build 0)  -->
<svg version="1.1" id="Capa_1" xmlns="http://www.w3.org/2000/svg" xmlns:xlink="http://www.w3.org/1999/xlink" x="0px" y="0px"
	 viewBox="0 0 303.5 191.6" style="enable-background:new 0 0 303.5 191.6;" xml:space="preserve">
<style type="text/css">
	.st0{fill:#E8E8E8;}
</style>
<path class="st0" d="M131.1,4.5H4.4v40.8h4.7V8.7h116.7L44.8,186h5.4L131.1,8.5V4.5z M272.1,4.5h-91.9L170.8,88h33.8
	c26.1,0,44.4,4.1,56,12.4c2.7,2,5.2,4.3,7.3,6.9c2,2.5,3.7,5.3,5,8.3c1.3,3,2.2,6.2,2.8,9.5c0.6,3.5,0.9,7,0.9,10.5
	c0,14-4.9,25.7-14.1,34c-5.1,4.5-11.1,7.8-17.6,9.8c-7.9,2.4-16.1,3.6-24.4,3.5c-12.4,0.1-24.7-2.3-36.2-7c-5-2.1-9.7-4.7-14.1-7.8
	c-3.2-2.3-6.2-4.9-8.8-7.9l-2.5,3.2c12.3,14.5,36.2,23.7,61.6,23.7c37.7,0,61.1-19.7,61.1-51.5c0-16.8-5.4-29.1-16.5-37.6
	c-12.3-9.4-32-14.2-58.6-14.2h-30.9l8.4-75h88L272.1,4.5z"/>
</svg>
